<mxfile host="65bd71144e">
    <diagram id="_s9ZKiCCuVq9Pugb4Udr" name="Page-1">
        <mxGraphModel dx="1074" dy="741" grid="1" gridSize="10" guides="1" tooltips="1" connect="1" arrows="1" fold="1" page="1" pageScale="1" pageWidth="827" pageHeight="1169" math="0" shadow="0">
            <root>
                <mxCell id="0"/>
                <mxCell id="1" parent="0"/>
                <mxCell id="2" value="" style="whiteSpace=wrap;html=1;aspect=fixed;" vertex="1" parent="1">
                    <mxGeometry x="140" y="110" width="500" height="500" as="geometry"/>
                </mxCell>
                <mxCell id="3" value="&lt;font style=&quot;font-size: 14px&quot;&gt;&amp;nbsp; &amp;nbsp; &amp;nbsp; &amp;nbsp; &amp;nbsp; &amp;nbsp; Volume of a Pyramid, with JS&lt;/font&gt;" style="rounded=0;whiteSpace=wrap;html=1;align=left;" vertex="1" parent="1">
                    <mxGeometry x="140" y="110" width="500" height="50" as="geometry"/>
                </mxCell>
                <mxCell id="4" value="" style="shape=image;verticalLabelPosition=bottom;labelBackgroundColor=#ffffff;verticalAlign=top;aspect=fixed;imageAspect=0;image=data:image/png,iVBORw0KGgoAAAANSUhEUgAAAOsAAADOCAYAAADfa/VQAAABJmlDQ1BTa2lhAAAokX2RPUvDUBSGH2sXxQ5+DA4O2XRR22iLYhcrbenaKrQ6SJqmQWxjSCO6uvsfdPMPOLsJjoLg5I8QB2ffpEgCUs/h3PPcc8/9OOdCZhlJNg9DLwya9YrR7hwbpMSyRz6TZQq+36MR3tb/yZskMz1nZMt/ysJAl+vInnjJHfN1xN0x30YcHDYPxPfiNTfF3RRfhX4ofonybT+I+ENcHg4u7eTdzDneUUu+LVuhzoXUZYDDJi3OOcMSVdiR5qmxiyktsM+2eIui1mpUNTMpKceUFeOxpJVqnFlL+nmag/yerr5LYn4Dnh71lFRs9QbmF+B52rcCKw5lZZl+H74eINeBxVeYPfltYrI3+YsJtRp/ajVo4GGzITJVZ4HSD723R912FEA7AAAfT0lEQVR4nO3daXAb55kn8D9OguJNgvcNgJQdy7pPW7ZOSxYlSqKixIozs9nazE5ljni8jrdmMltb+bKbKldNpVLJTKWmPFVzZDO2Y0WUCYOiJMs6LVmX5SO6SUq8KQoEQAIgrgawH3CQlAASDXSju8HnV+USBTYaLyX9/b7d/fTTsmAwGAQhRPTkQg+AEJIYCishEkFhJUQiKKyESASFlRCJoLASIhEUVkIkgsJKiERQWAmRCAorIRJBYSVEIiishEgEhZUQiaCwEiIRFFZCJILCSohEUFgJkQgKKyESQWElRCIorIRIBIWVEImgsBIiERRWQiSCwkqIRFBYCZEICishEkFhlbD+wUH87P++g57eh0IPhaQBhVXCjhqPwev14T9/fxgM4xd6OIRnFFaJ+vTMeQSDwNLnnkN2djY+ONwu9JAIzyisEjQ0PAzT8ZPYtPFFVFdVQS6Xw2Kz4vS5C0IPjfCIwipBRzo6sW3rZtTVVqOysgKjj8awr2UXTpw6jbv3u4UeHuEJhVViTp46g5zsbCw2NCE/LwcA0KzXwWqz4dC32/D+4XY4HA6BR0n4QGGVkL7+QXxy+iy2b92M7GwNlEolAMCg1+F+Ty+WLV2CtStX4D06fs1IFFYJaTeasL+1BQqFMjqrAoBB34j7PQ8AALt2boccMhw7/olQwyQ8obBKRNeJUygqKMCqFcvh9fmQm7Mo+r2a6ipMuaZgsVoBAK8d3I+rX9zAV1//UajhEh5QWCWg90Efzn12Cfv3tmDS7kBebs5T2xj0OnSHZ9fc3FwcOhg6fn1sNqd7uIQnFFYJaDea0NbagoL8fNgdTuTn5T61TbNeh+6e3unfNxmwY/sWvE/HrxmDwipyHx87gfLSUqxZvRIO5xTUKhXUatVT20VOMs205eWNKC4swpGPPk7XcAmPKKwidr+7F5evXsf+vS0AALvdiby8p5fAAFCqLYFCocDI6KNZr792sA3dvQ/w+ZVrvI+X8IvCKmLtRhPa9rYgNycHDMNgyuVGXu7TS+CIpieWwgCgVCqix6/9A4N8D5nwiMIqUh99fAw1NdVYuXwZAGDS7kRebg5ksvjvmXmSaaa62ppoYBk/FfxLFYVVhO7cvY8bX32DttaW6Gt2u3PWtdVYmvQ63O/tjfm99WtXw6BrxAcf0gknqaKwikwgEMCR8PI3W6MBAExNuSCXy6DRZM353vz8PBQWFqKvfyDm9w/s20MF/xJGYRWZo8ZONOkasez5JdHXJh1O5MW4XBNLs77xqePWmQ4dbMOJT07jHhX8Sw6FVURu3rqDm3fuYv+M5W8gEEhoCRxh0OtwL8Zxa0SpVotDB9vw3uF2OBzOlMdM0ofCKhI+HxNa/ra2QKWavo46Gb5cI5cn9ldlCJ8RDgQCcbeJFPzTDevSQmEViaNGE557ZjGWfOvZWa/b7Q7kxygvjEeTlYW62pqYZ4Vn2rVzO4AgFfxLCIVVBL765ibu9z6YtfwFALfbg0AgiEWLslntr0mvQ3ecs8IzvXawDVeo4F8yKKwCc7s90drfJ5e6oRNLic+qEU36xqdKD2Ohgn9pobAK7KjRhBVLl+DZxc2zXg8GE7u2GotBr0P/wBDcbve82y6mgn/JoLAK6Isvv0b/4BD27Wl56nt2h2NWNwg2ZDIZmvW66A3p86GCf2mgsArE6ZyKdn6IJdlZNcIQo054LlTwL34UVoEcMZqwbvVKNBv0T33P6/U91Q2CLYPh6Vvm5kIF/+JHYRXA1es3MDb2GHt27Yz5/XjdINior62BbWICE5OTCb+HCv7FjcKaZpOTdrR3mGYV6T8pXjcIttguhQEq+BczCmuaHTGa8NKL66FrbIj5/bm6QbDVHOeWuflQwb84UVjT6PMr12CzTWDXju1xt5mrGwRboTphdjNrBBX8iw+FNU0sVtu8y99EukGwUVFehoA/gLHH7AseqOBffCisadJuNGHblpdRX1cbd5tEukGw1TTPLXNzoYJ/caGwpsFnly5jasqFHdu2zLldqtdWY4nX6iVRu3ZuR4AK/kWBwsqzx+bxeZe/QOLdINhqitGilK3vRQr+v6GCfyFRWHl2tMOElp3bUVNdNed2bLpBsFFUVIicnEUYHBpOeh/Rgv8P2/HYPM7h6AgbFFYenbtwET6/H1s3vzzndmy7QbAVq0UpW1TwLzwKK09GH43hSALLX4B9Nwi2DPrGpC/hzBQq+C+ggn+BUFh5cjQc1MqK8nm3ZdsNgq1UTzLNRAX/wqGw8uDTs+chU8ix6aUX59022W4QbOQsWoSK8jL09D5MeV9KpZIK/gVCYeXY0PAITF0n0da6O6Htk+0GwdaTT5lLxcyCfz8V/KcNhZVjkeVvWal23m1T6QbBVjJF/XOJFPy/Ryec0obCyqGTn55BdrYGG19Yn9D2qXSDYMugb0T3g4fw+Xyc7fPAvj2wWaw4QwX/aUFh5Uj/wCBOfnoW+xJc/gLpm1WB0LGmIcFGamy8drANx6ngPy0orByJXKYpKS5KaHsuukGw1cThWeGI0lJt9PiVCv75RWHlQNeJUygqyMeGdWsSfg8X3SDYivV0dC4sW7oEq6ngn3cU1hQ9eNiHs59dxH4Wy1+Au24QbOga6jH22MzLDNhCBf+8o7CmKLT83Y2CgvyE38NlNwi2uLyE86RDVPDPKwprCkzHTqC8VIu1q1eyeh+X3SDYMugbE3q0RjLyZnX4p4J/rlFYk3S/pxeXrl5jvfzluhsEW/M9EjJVi5sM2LGVCv75QGFNUnt4+ZvL8iRRpGify24QbFRXVcLtcmPcYuXtM7ZsooJ/PlBYk9Dx8THUVldh1YplrN9rtzt5LdpPBBe3zM2HCv65R2Fl6c69+7j+1desl78Af90g2Goy8B/WWQX/g0O8ftZCQWFlIRgMor3DhAOtu5GdrWH9fr66QbBl0DUm/NCqVEQL/j88QgX/HKCwstDeYYK+sQHLli5h/V6+u0GwodWWQKVSYmR0lPfPChX8N1DBPwcorAm6eesObt6+k9TyF+C/GwRbTSweCZmqA/taqeCfA+L4lyNyDMOEn06+O+lCBr67QbDFV+lhPFTwnzoKawLaO0x4dnEzljz3bFLv57MbRHFRQVLvM6TQ/DsZVPCfOgrrPL7+5ibu9/QmvfwF+O0GUVJcmNT78vPyUFxUhId9/RyPKD4q+E8NhXUObo8H7cZOtLXuhkKR3B9VOrtBsJXsU+ZSQQX/yaOwzuFohwnLn38Ozz7TnPQ+7A4HFqWpGwRbXLd6SRQV/CeHwhrHjS+/Rt/AIPYl0Pd3LpwX7Qc9mHg0gp6ePtwbtMGbwq4ij4QMBAKcDS8RVPCfHAprDM6pqejyNxW8dIOQZaGgrBiFSkCZlQV1CrvKylKjob4urWeFI6jgnz0KawxHO0xYu2oFmpv0Ke2Ht24QAS88fhnUmlSiGpLKIyFTRQX/7FBYn3D1+g2MPBrDnpadKe+Lt24Qbi9cUEKjUaS8q3QWR8RCBf+Jo7DOMDlpDy1/96a2/AX47QbBeLzwK9TI8lgxMjCI7t5B9FlcCCaxL4Neh8GhYbhcbs7HmYiZBf8DVPA/JwrrDEeNJry0YR30jQ0p72uSt24Qfrg9PiDogxs5KK+pQMWiIDx2J6aSSSv4bfWSiEjB/3sfUof/uVBYwz6/cg3jVht27dye8r4YhoGLr24QQR9cniDUBSUozVVDLlNAIZcDCgWSvTiU7tLDWEIF//VUMDEHCisAq9XG2fIX4LkbBOOBO6BAtiYSTR88XgZydRbUSX5eqPm3cMetEQf2tcJCBf9xUVgRWv5u2/wSGupqOdkfr90g3F54oEJWVvivzu/FlFcGTXYWkv1/Q11tDSbtk7BNTHA2zGS9drANXZ+cxr37PUIPRXQWfFg/u3QZducUdmzbwsn++O0GEYTb7UVArUZ2JJluNydnhrl8hmsqpgv+j1DB/xMWdFjN5nG0GztxgKPlL8B3NwgGbg8DuVodXfL6PD74ZUqoUqxmFPok00zLqeA/pgUd1iNGE3bt2Iaa6ipO9sd7N4iAF26fDFma6SWvUq2COuiB9ZEFVnfyZYN8PLQqFdGC/xNU8B+xYMN67sJF+H0Mtm1+mbN98t4NQp6DisY61OZPT6OyXC0adLVoqChGkSb5zy0vK0MwGMTY2GMuRsqJQwfbcOU6FfxHLMiwjj4aQ7uxE/s5XP4C4usGwZbQ1UxPooL/2RZkWNuNndi3ZxcqK8o52yef3SDSRahb5uZCBf/TFlxYT589D4VMhs0vvcjpfvnsBjGXcYuNs30Z9Drc5+k5OKmggv+QBRXWoeERGI+d4Hz5K2Q3CIuVu2ujRYUFyM3JFWWNbqTg//ICLvhfUGGNXKYpK9Vyul8xd4Ngq9kg3C1zc4kU/L+3gAv+F0xYP/n0DLKzsrDxhfWc71vIRzhyzaATR3FELNGC/8MLs+B/QYS1f2AQx0+dwf69qbVoiYWXbhACirR6Eav1a1fD0LAwC/4XRFgjy9+S4mLO981bNwiBLFqUjarKCnT3inN2BYAD+1thXoAF/xkf1q6Tp5Cfn4cN69bwsn/eukEIKB2PhEzV9xZgwX9Gh/XBwz6cPX8RbSl2KIyHz24QQmoSWelhLLM6/DsXRsF/Roc1co9qYUFyj5iYD3/dIIRl0OvQ+6APXm8qjU75Fyr4X4YPPlwYx68ZG1ZT1wlotSVYu3olL/vntRuEwBQKhSDd+pPRsvOVBVPwn5Fh7e7pxaXL13hb/gI8d4MQATG0eknUoYNtuHLtBr765qbQQ+FVRoY1svzlc9bjtRuECIjtlrm55OXm4tB3QjesZ3LBf8aFtcPUhZqqSqxasYy3z+C3G4Q4NDbUwzw+DrvDIfRQErIQCv4zKqx3793H9RtfYT+Py1+A724Q4iHGu3DmkukF/xkT1mAwGF3+Zmfzd5sa790gREQqJ5lmihb8X828gv+MCetRYyd0DfVYvnQJr5/DezcIEZHSSaaIaMH/h5lX8J8R/+Ju3r6Db27e5n35C0i/GwQbVZUV8Hi8GB+3CD0UViIF/+9nWMG/5MPKMEx0+atWp/5UtblkQjcItqRQzRTL+rWroc+wgn/Jh/WosRPPNjfh+eee5f2zMrViaS5i6SecjEwr+Jd0WL/+403c7e5Jy/I3GIwU7S+8sEpxZo3IpIJ/yYbV4/GEbn1rbYFCkfpzSueTSd0g2NCWFEOdpcbwyKjQQ0lKJhX8SzasR42dWLbkOTz7zOK0fF4mdYNgS0zd+pORKQX/kgzrja++xoP+gbQsf4HM6wbBlkHfKOruEYnIhIJ/yYV1amoquvxNB4/Hi9FHZvj9AfQPjmBk9DEem62wTUzC4ZyCx+NFIJD8YyukQMonmWaSesG/5A7Ajhg7sWblCjQ3GXj/LIt1AhbrBLQlRcjLywHjY+BjmNCvPgZTLjcYnx8+hoEMgFKlhEqphEqlhFIZ+lqpUkClVEq6iCIvNxfakmI8eNiPxoY6oYeTtEiH/3/73fuorqyAVlsi9JBYkVRYr33xJUZHH+FPXjvI6+dMudwwj1uhUilRX1cFVfikkiJLjays2Ndy/f7AdJAZBj6fD1NTrtBrDAOZTBYObzjE4VBHvpbLxX2vXaTVi5TDCgCLmw3YsXUT3jvcjh//6M+EHg4rkgnrpN2OdqMJ/+1PX+ftM4LBIMzjNjicTmiLi1idUFIo5FAo1EDcMPvDIfaDYRh4vdNh9vkYyOXy8KysiAY5MjurVErIBL5xtkmvw9nzn+GVbZsFHQcXtmx6CcMjo2j/6GO07dsj9HASJpmwths78eL6ddDrGnnZv8M5BfO4FYuys1FfW8X5slWhUEChUCDeXXWM3z+9zGYYeDw+OJyu6GsKuXx6Vo4st5WhS1bBYJD3MBv0jfiXf/8t/H5/Wi6V8e21g234xa9/g8tXr2PdmlVCDychkgjr5avXYbFY8YPXX+N8336/H+ZxK9weL0q1xcgRqJRQqVBAqVBAg9hpZhh/NMg+HwOPxwOHgwEA9DwYgEIhn7W8nr3MVqQcZrVajcaGenT39GJxc1NK+xKDSMH/L379G1RVVqC2plroIc1LFgwGg0IPYi5Wmw3v/OJX+NEP/ysa6rk9XpqYdMA8bkVBfh60JYWc7jtd7vf0oUlfHwoxMz07zz5+ZsJLakXMk2CqBB+b3nXiFBi/H3t27eD5p0qfz69cw/mLn+OtH/+F6FcMop9Z242d2PryRk6D6vX6YLZYEfAHUF1ZlhEdH5ThWTXeOntmeBnGD5fLAx/jjL42++SXYnpWDv8KhC7hGI8dT+ePxbv1a1djaHgEHxxux+s8n7hMlajDevHzK3A4nNixfStn+7TaJmEet0JbUoSiwnzO9it2qvAsGm+R7/OFl9jhmdjlcmOS8UdfV6mU0GQvwtDwCIZHHiE3NxeqcKilXoL57f2t+NVv3sWZcxew+eWNQg8nLtH+KZvHx9HeYcIbf/nnnOzP7fbAPG6FXCFHfW1VxjXmTpVKFVoOxwpzEIjOwI0N9XjwsA96vS76mt/vn3FdWRn9H8PMmVrspo9fK9HcpBd6ODGJNqztxk68+spWTg78zeM2TEzaoS0pQkF+5vdO4poM02H+1uImPBobw4sb1ka/HwwGwye+pk+COWdcY/b7A+ETXoqY15jFEOayGQX/b73xF8jNEV8duCjDeu6zS/B6fdi2ZVNK+3FOuWAet0KTpUZDXZXoTyBIgUGvw+9+/4dZr8lkMqhUKqhUsVcrwWDwiRNefjid09eYA4HA7FlZFT5uDn+drr+35UuXYHhkBO8fbsef/eBP0vKZbIgurI/GxtDeYcL/fPOvk95HIBCAedyGKZcL2pKiBVuAz4fammo47A7YbBMoLEzssSQymSz0TKC5wuybfQbb7fGEv/YjGAjEuMYc+VrBaZhbdr6Cd//ttzh24hPs2rGds/1yQXRhPdrRiX27X0VVZUVS77fbnTBbrMjNyUF9bZXglT+ZqCl8Q/qaVSs42Z9MJoNaHf8BX4FAIHqdOXLCy+32RJfZwSBmzcRPLrMVCnYFLocOtuEXvwodvy57/jkufkROiCqsp89dQFCGpM7I+RgG5nErfD4G5WVaLMrW8DBCAoSqmbo5DOt85HI51Gr5nGGenpVDZ7AjYfb5QoUjM2fiJ68xP1mtJtaCf9GEdXhkBMbO4/i7t95g/V7bhB3mcSuKiwpQWV7Kw+jITE16HU6dOS/0MKLkcjmy1GpkxWmYFwgEppfZTOSOKU90yQ1g1kysUilRU12FrZs24r3DR/DjH/33dP44cYkmrEc7OtHW2oKyssTD5vF4YR63AgBqqyvi3hFDuFVWVgrIgEdjj1HO4u9LKHK5HFnz3DE18xqzz+fDlMuFUm0Zzl64hOGR0aQPy7gkirB+8ulZqLLUeOnFDQm/Z+a9poUFeTyOjsQSafUihbDOJ3LH1Mwwnz57Hh+ZutDaslMUQQVEENb+wSEcP3U64eVvvHtNSXoZ9Dp8c+s2XtywTuihcOphXz86Oo9jkUaDn779NygvKxN6SFGC/0v/qMOEttYWlJQUz7ldKveaEu4Z9I1oN5qEHganTMdO4MLnV7C3ZSc2rFsj9HCeImhYj5/8FHl5uXhh/do5t+P7XlPCXmFBAfLz8tA/MIi62hqhh5OSW3fuosPUhbqaavz922+K9gmBgoX1wcN+nD5/AX/3k7+Ju41Y7jUVI6/Xh7HHoQcHDw6Noqy0JO31zk3hRmpSDavb7Yax8zju3O/G3pZXRXVNNRbBpqh2owltrbtRWBC7CmZi0oGH/cNQKJSor62ioD5h7PE4XG4PAMDl9kSDm05NEu4nfO2LL/Hzf/glVCol/v7tN0UfVECgmbWz6yRKS4pjttPIxHtN+RAJarzfp4NB34j/+M8P0v65qbBYrDB2dsFsseJPv/ddNOl1Qg8pYWmfWbt7HuCzy1ewf+/up75ntU2ib2AY2RoNaqorKKhzyH7iz+bJ36dlDNnZqK6ukszseu7CJfz8H36JyooK/OSNv5RUUAEBZtZ2owkHWncjL3f6IJ7uNWWvrLQkuhTO1mShrFSYkrjIIyENIv6HPzg0DKOpC5DL8T/++keorqoUekhJSWtYjaYuVFdWYNXK5dHX6F7T5KjVKtRUC3+x3qDX4fgnp7FL6IHE0XXyFD49ex57W17FxhfWCz2clKRtGXz3Xjeu3vgyuvx1TrnQNzAMv59BQ10VBVWiDHodHvb1w+P1Cj2UWVwuNwCACQTw07fflHxQgTSFNRgMRpe/mqwsjD224LHZgpLiQpSXaemmcAlTyOXhZ+Hwe9zqun8Rv/vHd/CTn/0af+iffrbQsPGX+PE7H+NhAABsuPzuO/jf73+NYLYGHo8He3a+gqJCaXaufFJawnrU2InG+jrodTr0DQxDJpOhvraKbgrPEM3hW+b4lN30Ar7/vU3QecwYMPvCrzowOGBBoLoO1XLA7fHC73PD1tePEZ8fWVmZdYKS97Deun0XX//xFjasXwfrxCTKy7Qo1RbRTeEZxKDX4V53Gp4y57RjAoWoqQqfgGQG0fsogOqaUqgAaLLKsGLzSmhzspGnyrzVGq9hZRg//vDRx9iwbi1yc3JQV1NJN4VnoIb6OlisFtjtDl4/x/6gH6M5tXimLPzPdnQAfZ4C1DSUR7fJzs9FTlklingdiTB4PRvcPzCIgoICjI6O4vjJT1BUVIjioqLQf8Whr0lmaNKFWr2sXL6Up0/woO/BEPz1K6CTh0oFZQPDGFZVYF2xBwg3UfUMWVD6zAvIxIt/vIa1ob4O3//uAVisNlisVlisVnT39GLcaoXFaoPNNhENcEkkyMVFKA5/XVQk1RMD47j2+yMwfvEQj6u24n+9sQ3if5JKaiInmXgLa2AU9wa8KF5XBU0gALlGiXsPh8GUrEVTfrgUlRnFZz15eOG7mXWsGsFrWOVyGUpKiuPe/hYIBMIhtsFqtcJiseHe/W6Mh39vm5iMzsIlRaEQF80ItHjP8pVg9XdbYRv8J3RV12V8UIFQccT5i5d4/AQFIANcdjv8ci1Gb5zDtcd+yJ1WmF1BVGMUnxvPwLrx29gq+I2f/BD0x5LL5dCWlEBbErv6xu8PhEIcDrTFag2HOfT7yUl7NMAlRYXhEE/PzIm2yuSFy4xBsxw1m6uEG0MaVVZWwOvzwTw+HvfvMyXyGmze9jxumf4f/vZeJVbv+g4O/aAWBe934Lc//z84Wt6EDXv34dt1mdvaR/RPkZuL3++fnpkt04GOzMyTdscTM3N4Rg7PzPHu+OFEzzH87N1urHrrr7C3bGHcf/u79z+EXteI9WtXc7ZPl9uNbE3opCTDMJJ/rk4qJP2TKxQKlGq1KNVqY36fYUJhts6YmW/evRddcjucThQXhYJcFGNmLihI/sFVjv5+WHMqodMujKACoePWu909nITV6ZyCsbMLBfn52LxpI7I1mgUdVEDiYZ2PUqlAWakWZaXxwsxMn/yyWGG12nDr9h2Mh19zOqfmnJkL8uOFmcHDgUcI1K6BbuFkFQZ9I0zHT6a8n8tXr6Oj8zjWr16JXTvF1RVfSBkd1vkolco5w+zzMU/NzN/cvhOdmadcLhQXFeLVV7bNOgsa9I+gd8CLsnVVWEg1WiXFxdBkaTA0PJLUnS2PzWYYTccx6XDgh//ldegaG3gYpXQt6LDOR6VSorysNG67TZ/PB4vV9tR9tzLbEHrsOaitj/0+p3MK/oAf+XmZ10K1KVx6yDasp89dQIepC3tefSXlB5JlKgprClQqVewgD/RjSF6JtdUyBAKBpxq83bp9Bx2dx+H2eKLHzMXFRTOKRkK/irVx11ya9Dpcv/EVNr30YkLb9/UPoKPzOLKy1Pjbt95ARbl4Wn+KDYWVByN9w3CVPY+GRfKY9ZxrVq/EmtUr4fV6Zx0zW6w2DA4ORY+ZvR5v9Ph45jFzJNgzb+AXC4Neh/cOtye0ranrJC5c/Bx7d78qytafYkNh5ZwDA0MW+HNy561PVavVqCgvizubeDzep46Z+wYHoyfDvD7fjJk5XDAyY2bOzU1/b+Xc3ByUlWrx4GEfGhvqY25z+849dHR2oaaqEj99+03k52fe4QAfJH2dVZwY9Bl/g3++5ED+t5bhld27sKqInzuMPB7PUzOzNXyd2WK1gvEx0Vk41szM19O9O0zHoNFosGPbllmvuz0eGE1duHPvPlpbXsXypUt4+fxMRWHNYG63Z3Y5Z/gs9rg1NDMzfv+smTlUjz09M+ckeb/xrTt3cfrcBfzVn/8w+tr1G1+iw3Qcy5cuQWvLzgV/zTQZ9CeWwTSaLFRVVsR9sJLb7Q7NzJbpks4HD/uiM3MgEIjeUBFrZs5ZFDvMBr0O7/7rb8Ewfkza7ejo7IJ53ILvHzqIZoOezx85o9HMSuJyudxxZ2aL1YZgMBh3Zv7DRx+jurICl699ge2bX8bOV7YK/eNIHoWVJG3K5YL1iZk5csz8aOwxyspK8fp3DqCmemHczMA3CishErGAKlcJkTYKKyESQWElRCIorIRIBIWVEImgsBIiERRWQiSCwkqIRFBYCZEICishEkFhJUQiKKyESASFlRCJoLASIhEUVkIkgsJKiERQWAmRCAorIRJBYSVEIiishEgEhZUQiaCwEiIRFFZCJILCSohEUFgJkQgKKyESQWElRCIorIRIBIWVEImgsBIiEf8f7CfhMow5IVUAAAAASUVORK5CYII=;" vertex="1" parent="1">
                    <mxGeometry x="160" y="170" width="159.71" height="140" as="geometry"/>
                </mxCell>
                <mxCell id="5" value="&lt;font style=&quot;font-size: 17px&quot;&gt;Formulas&lt;br&gt;V = (L x W x H)&amp;nbsp;÷ 3&amp;nbsp;&lt;/font&gt;" style="text;html=1;strokeColor=none;fillColor=none;align=center;verticalAlign=middle;whiteSpace=wrap;rounded=0;" vertex="1" parent="1">
                    <mxGeometry x="390" y="225" width="176" height="30" as="geometry"/>
                </mxCell>
                <mxCell id="11" value="" style="line;strokeWidth=1;html=1;perimeter=backbonePerimeter;points=[];outlineConnect=0;fontSize=9;" vertex="1" parent="1">
                    <mxGeometry x="160" y="365" width="190" height="5" as="geometry"/>
                </mxCell>
                <mxCell id="12" value="Length (mm):" style="text;html=1;strokeColor=none;fillColor=none;align=center;verticalAlign=middle;whiteSpace=wrap;rounded=0;fontSize=12;" vertex="1" parent="1">
                    <mxGeometry x="156" y="322" width="80" height="30" as="geometry"/>
                </mxCell>
                <mxCell id="13" value="" style="line;strokeWidth=1;html=1;perimeter=backbonePerimeter;points=[];outlineConnect=0;fontSize=9;" vertex="1" parent="1">
                    <mxGeometry x="160" y="430" width="190" height="5" as="geometry"/>
                </mxCell>
                <mxCell id="14" value="Width (mm):" style="text;html=1;strokeColor=none;fillColor=none;align=center;verticalAlign=middle;whiteSpace=wrap;rounded=0;fontSize=12;" vertex="1" parent="1">
                    <mxGeometry x="156" y="390" width="80" height="30" as="geometry"/>
                </mxCell>
                <mxCell id="15" value="" style="line;strokeWidth=1;html=1;perimeter=backbonePerimeter;points=[];outlineConnect=0;fontSize=9;" vertex="1" parent="1">
                    <mxGeometry x="160" y="490" width="190" height="5" as="geometry"/>
                </mxCell>
                <mxCell id="16" value="Height (mm):" style="text;html=1;strokeColor=none;fillColor=none;align=center;verticalAlign=middle;whiteSpace=wrap;rounded=0;fontSize=12;" vertex="1" parent="1">
                    <mxGeometry x="156" y="450" width="80" height="30" as="geometry"/>
                </mxCell>
                <mxCell id="18" value="CALCULATE" style="rounded=1;whiteSpace=wrap;html=1;fontSize=12;strokeWidth=1;" vertex="1" parent="1">
                    <mxGeometry x="160" y="530" width="80" height="25" as="geometry"/>
                </mxCell>
                <mxCell id="19" value="&lt;font style=&quot;font-size: 11px&quot;&gt;Length...&lt;/font&gt;" style="text;html=1;strokeColor=none;fillColor=none;align=center;verticalAlign=middle;whiteSpace=wrap;rounded=0;fontSize=12;textOpacity=70;" vertex="1" parent="1">
                    <mxGeometry x="147" y="345" width="80" height="30" as="geometry"/>
                </mxCell>
                <mxCell id="20" value="&lt;font style=&quot;font-size: 11px ; line-height: 1.2&quot;&gt;Width...&lt;/font&gt;" style="text;html=1;strokeColor=none;fillColor=none;align=center;verticalAlign=middle;whiteSpace=wrap;rounded=0;fontSize=12;textOpacity=70;" vertex="1" parent="1">
                    <mxGeometry x="144" y="411" width="80" height="30" as="geometry"/>
                </mxCell>
                <mxCell id="21" value="&lt;font style=&quot;font-size: 11px ; line-height: 1.2&quot;&gt;Height...&lt;/font&gt;" style="text;html=1;strokeColor=none;fillColor=none;align=center;verticalAlign=middle;whiteSpace=wrap;rounded=0;fontSize=12;textOpacity=70;" vertex="1" parent="1">
                    <mxGeometry x="144" y="471" width="80" height="30" as="geometry"/>
                </mxCell>
            </root>
        </mxGraphModel>
    </diagram>
</mxfile>